<?xml version="1.0" standalone="no"?>
<!DOCTYPE svg PUBLIC "-//W3C//DTD SVG 20010904//EN"
 "http://www.w3.org/TR/2001/REC-SVG-20010904/DTD/svg10.dtd">
<svg version="1.0" xmlns="http://www.w3.org/2000/svg"
 width="300.000000pt" height="300.000000pt" viewBox="0 0 300.000000 300.000000"
 preserveAspectRatio="xMidYMid meet">
<metadata>
Created by potrace 1.10, written by Peter Selinger 2001-2011
</metadata>
<g transform="translate(0.000000,300.000000) scale(0.100000,-0.100000)"
fill="#000000" stroke="none">
<path d="M520 2974 c-30 -8 -93 -33 -140 -56 -180 -87 -332 -290 -365 -485
-10 -65 9 -52 30 20 30 104 94 223 158 293 95 103 194 163 340 205 117 33 96
55 -23 23z"/>
<path d="M800 2981 c0 -6 12 -13 28 -16 74 -16 199 -68 259 -108 85 -57 535
-506 545 -544 11 -40 -16 -89 -53 -97 -16 -3 -39 -2 -52 3 -12 5 -126 113
-253 240 -127 127 -255 246 -283 265 -71 48 -194 86 -279 86 -337 0 -591 -330
-503 -650 37 -133 52 -151 441 -541 340 -341 370 -368 440 -403 137 -67 265
-77 398 -32 62 21 102 43 211 122 43 30 71 30 105 -1 41 -37 36 -78 -16 -129
-123 -120 -281 -179 -474 -178 -138 1 -279 45 -384 121 -58 41 -720 701 -766
762 -47 64 -98 171 -119 252 -21 78 -41 91 -30 20 11 -76 62 -195 114 -269 74
-105 751 -772 827 -816 277 -160 621 -129 838 75 62 58 66 65 66 106 0 36 -6
49 -35 78 -32 32 -39 35 -80 31 -34 -4 -55 -15 -92 -48 -63 -56 -171 -107
-258 -120 -92 -15 -187 1 -285 47 -70 34 -96 57 -413 372 -186 185 -356 359
-378 387 -112 145 -130 348 -46 516 37 75 130 172 203 210 143 77 325 77 468
0 34 -18 135 -110 308 -280 231 -229 260 -254 295 -258 79 -10 144 72 114 144
-19 45 -515 531 -584 571 -100 58 -277 111 -277 82z"/>
<path d="M1560 2070 c-36 -4 -92 -15 -125 -24 -133 -39 -297 -148 -325 -215
-18 -45 -5 -95 32 -126 48 -41 99 -32 175 30 32 27 87 62 123 79 62 30 70 31
196 31 l130 0 80 -39 c76 -37 96 -55 464 -425 395 -395 399 -400 450 -526 18
-44 24 -183 11 -244 -40 -188 -194 -342 -382 -382 -67 -14 -201 -6 -254 16
-113 46 -133 63 -428 355 l-298 295 -44 0 c-34 0 -50 -6 -70 -25 -31 -32 -44
-76 -34 -115 12 -44 584 -610 660 -653 72 -41 172 -78 232 -87 69 -11 57 7
-20 29 -95 27 -179 67 -243 115 -61 46 -575 554 -592 586 -16 28 -12 74 8 96
21 23 80 25 111 4 12 -8 138 -131 280 -274 142 -142 283 -274 313 -294 110
-72 267 -104 381 -77 364 86 532 486 333 790 -43 65 -738 762 -804 806 -92 62
-153 79 -280 79 -146 0 -215 -23 -326 -107 -87 -65 -115 -71 -157 -33 -44 42
-38 79 26 140 119 113 312 179 492 168 132 -7 289 -65 379 -139 17 -14 194
-188 394 -387 405 -404 439 -445 492 -605 37 -113 56 -141 45 -69 -9 67 -39
148 -81 226 -30 55 -106 135 -443 472 -405 405 -406 407 -498 452 -130 64
-267 90 -403 77z"/>
<path d="M2978 614 c-5 -7 -21 -52 -37 -100 -62 -189 -161 -313 -321 -401 -54
-30 -199 -83 -226 -83 -8 0 -14 -4 -14 -10 0 -26 127 7 240 62 67 33 101 58
170 127 95 95 142 173 180 298 20 67 25 133 8 107z"/>
</g>
</svg>
